<svg width="18" height="19" viewBox="0 0 18 19" fill="none" xmlns="http://www.w3.org/2000/svg">
<path d="M5.07013 17H12.9301C15.0001 17 15.8251 15.7325 15.9226 14.1875L16.3126 7.9925C16.4176 6.3725 15.1276 5 13.5001 5C13.0426 5 12.6226 4.7375 12.4126 4.3325L11.8726 3.245C11.5276 2.5625 10.6276 2 9.86263 2H8.14513C7.37263 2 6.47263 2.5625 6.12763 3.245L5.58763 4.3325C5.37763 4.7375 4.95763 5 4.50013 5C2.87263 5 1.58263 6.3725 1.68763 7.9925L2.07763 14.1875C2.16763 15.7325 3.00013 17 5.07013 17Z" stroke="#7E7F83" stroke-width="1.3" stroke-linecap="round" stroke-linejoin="round"/>
<path d="M7.875 6.5H10.125" stroke="#7E7F83" stroke-width="1.3" stroke-linecap="round" stroke-linejoin="round"/>
<path d="M9 14C10.3425 14 11.4375 12.905 11.4375 11.5625C11.4375 10.22 10.3425 9.125 9 9.125C7.6575 9.125 6.5625 10.22 6.5625 11.5625C6.5625 12.905 7.6575 14 9 14Z" stroke="#7E7F83" stroke-width="1.3" stroke-linecap="round" stroke-linejoin="round"/>
</svg>
